<svg width="206.341" height="90.001" viewBox="0 0 206.341 90.001" xmlns="http://www.w3.org/2000/svg">
    <g id="svgGroup" stroke-linecap="round" fill-rule="evenodd" font-size="9pt" stroke="#ffffff"
        stroke-width="0.25mm" fill="#000" style="stroke:#ffffff;stroke-width:0.25mm;fill:#000">
        <path
            d="M 8.7 58 L 16.9 63.4 L 29.2 63.4 L 34 60 L 34 53.4 L 29.4 50.2 Q 25.9 49.6 21.8 48.85 Q 17.7 48.1 13 47.3 L 3.2 40.2 L 3.2 27.1 L 12.9 19 L 29 19 L 38.9 27.6 A 30.238 30.238 0 0 1 38.91 28.196 Q 38.939 32.371 37.723 34.021 A 2.507 2.507 0 0 1 35.6 35.1 A 3.165 3.165 0 0 1 33.102 33.805 Q 31.5 31.861 30.716 26.999 A 38.502 38.502 0 0 1 30.7 26.9 L 16.4 26.9 L 11.2 30.3 L 11.2 36.5 L 16.8 40 Q 20.4 40.7 24.55 41.5 Q 28.7 42.3 33.4 43.1 L 42 49.8 L 42 63.4 L 32.7 71 L 15.3 71 L 4.3 64.6 L 0 56.5 Q 0.3 53.9 4 53.9 A 4.713 4.713 0 0 1 6.158 54.374 Q 7.974 55.293 8.7 58 Z M 128.7 19 L 139.8 19 L 147.2 22.3 L 152.3 30.3 L 152.3 53.4 Q 152.3 68.425 149.023 69.85 A 1.793 1.793 0 0 1 148.3 70 Q 144.311 70 144.3 54.484 A 121.117 121.117 0 0 1 144.3 54.4 L 144.3 27 L 126.4 27 L 119.3 35.6 A 28.757 28.757 0 0 0 118.692 38.833 Q 117.936 44.31 117.902 54.422 A 286.783 286.783 0 0 0 117.9 55.4 Q 117.9 65.688 115.914 68.727 A 2.393 2.393 0 0 1 113.9 70 Q 110.3 70 109.94 49.75 A 267.775 267.775 0 0 1 109.9 45 A 244.474 244.474 0 0 1 109.998 37.798 Q 110.525 20 113.9 20 A 3.277 3.277 0 0 1 117.021 22.088 Q 117.761 23.64 117.878 26.343 A 24.456 24.456 0 0 1 117.9 27.4 A 48.89 48.89 0 0 0 117.914 28.618 Q 118.055 34.234 119.613 29.376 A 30.588 30.588 0 0 0 119.7 29.1 L 128.7 19 Z M 96.215 20.432 A 0.643 0.643 0 0 0 95.6 20 A 2.039 2.039 0 0 0 94.974 20.104 Q 91.609 21.186 86.243 33.579 A 179.454 179.454 0 0 0 83.7 39.8 Q 76.1 59.5 68.5 39.8 A 211.932 211.932 0 0 0 67.658 37.641 Q 62.372 24.307 58.817 21.052 A 3.296 3.296 0 0 0 56.7 20 A 1.052 1.052 0 0 0 56.09 20.175 Q 53.715 21.804 59.9 38.584 A 288.271 288.271 0 0 0 62.2 44.6 A 158.671 158.671 0 0 1 64.231 50.015 Q 71.492 70.552 67.5 79.6 Q 63.713 88.353 66.088 89.739 A 2.176 2.176 0 0 0 67.2 90 A 1.083 1.083 0 0 0 67.616 89.907 Q 68.411 89.575 69.549 88.053 A 21.374 21.374 0 0 0 70.25 87.05 A 38.979 38.979 0 0 0 70.261 87.034 Q 71.597 85.01 73.215 82.025 A 132.429 132.429 0 0 0 74.75 79.1 Q 77.3 74.1 80.1 67.85 Q 82.9 61.6 85.6 55 Q 88.3 48.4 90.55 42.15 A 306.034 306.034 0 0 0 90.846 41.325 Q 91.868 38.459 92.729 35.862 A 182.386 182.386 0 0 0 94.3 30.9 A 122.733 122.733 0 0 0 94.58 29.952 Q 95.844 25.615 96.25 22.95 A 15.659 15.659 0 0 0 96.274 22.787 Q 96.514 21.097 96.215 20.432 Z M 164.998 24.917 A 479.089 479.089 0 0 0 164.9 35 A 481.488 481.488 0 0 0 164.994 44.904 Q 165.513 70 168.9 70 A 1.72 1.72 0 0 0 170.247 68.795 Q 172.391 64.52 172.802 45.083 A 479.089 479.089 0 0 0 172.9 35 A 481.488 481.488 0 0 0 172.806 25.096 Q 172.287 0 168.9 0 A 1.72 1.72 0 0 0 167.553 1.205 Q 165.409 5.48 164.998 24.917 Z M 204.9 70 A 2.513 2.513 0 0 0 205.497 69.936 Q 209.061 69.06 197.5 56.1 A 35.891 35.891 0 0 1 194.726 52.599 Q 188.123 43.021 193.522 34.844 A 22.008 22.008 0 0 1 196.7 31.1 Q 207.24 21.014 203.497 20.093 A 3.793 3.793 0 0 0 202.6 20 A 6.444 6.444 0 0 0 201.629 20.077 Q 197.412 20.72 190.7 26.747 A 91.104 91.104 0 0 0 186.3 31 Q 182.8 34.7 182.25 39 Q 182.001 40.95 182.193 42.921 A 19.516 19.516 0 0 0 183.3 47.7 Q 184.9 52.1 187.75 56.05 A 53.946 53.946 0 0 0 188.108 56.541 A 49.033 49.033 0 0 0 193.95 63.15 A 59.493 59.493 0 0 0 194.884 64.01 Q 196.274 65.262 197.592 66.282 A 33.049 33.049 0 0 0 200.25 68.15 Q 203.2 70 204.9 70 Z"
            vector-effect="non-scaling-stroke" />
    </g>
</svg>